<?xml version="1.0" encoding="UTF-8"?><svg id="Layer_1" xmlns="http://www.w3.org/2000/svg" viewBox="0 0 435.65 435.65"><defs><style>.cls-1{fill:#3f5e78;}</style></defs><path class="cls-1" d="M317.82,81.82H117.82c-19.88,0-36,16.12-36,36v200c0,19.88,16.12,36,36,36h200c19.88,0,36-16.12,36-36V117.82c0-19.88-16.12-36-36-36ZM323.82,297.82c0,14.36-11.64,26-26,26h-160c-14.36,0-26-11.64-26-26v-160c0-14.36,11.64-26,26-26h160c14.36,0,26,11.64,26,26v160Z"/><polygon class="cls-1" points="193.73 224.82 215.73 224.82 204.73 187.09 193.73 224.82"/><path class="cls-1" d="M297.82,123.82h-160c-7.73,0-14,6.27-14,14v160c0,7.73,6.27,14,14,14h160c7.73,0,14-6.27,14-14v-160c0-7.73-6.27-14-14-14ZM226.84,252.39c-1.87,0-3.41-.42-3.96-2.18l-4.51-15.38h-27.17l-4.51,15.38c-.55,1.76-2.09,2.3-4.07,2.3-3.19,0-7.26-2.04-7.26-4.9,0-.33,0-.69.11-1.02l21.89-71.29c.88-2.64,4.07-3.97,7.37-3.97s6.6,1.32,7.48,3.96l21.78,71.28c.11.33.22.66.22.99,0,2.75-4.07,4.84-7.37,4.84h0ZM254.82,248.54c0,2.53-3.03,3.85-6,3.85s-6-1.32-6-3.85v-72.82c0-2.64,3.14-3.74,6-3.74s6,1.1,6,3.74v72.82Z"/><path class="cls-1" d="M239.82,373.65c-3.31,0-6,2.69-6,6v50c0,3.31,2.69,6,6,6s6-2.69,6-6v-50c0-3.31-2.69-6-6-6Z"/><path class="cls-1" d="M195.82,373.65c-3.31,0-6,2.69-6,6v50c0,3.31,2.69,6,6,6s6-2.69,6-6v-50c0-3.31-2.69-6-6-6Z"/><path class="cls-1" d="M152.82,373.65c-3.31,0-6,2.69-6,6v50c0,3.31,2.69,6,6,6s6-2.69,6-6v-50c0-3.31-2.69-6-6-6Z"/><path class="cls-1" d="M282.82,373.65c-3.31,0-6,2.69-6,6v50c0,3.31,2.69,6,6,6s6-2.69,6-6v-50c0-3.31-2.69-6-6-6Z"/><path class="cls-1" d="M189.82,6v50c0,3.31,2.69,6,6,6s6-2.69,6-6V6c0-3.31-2.69-6-6-6s-6,2.69-6,6Z"/><path class="cls-1" d="M233.82,6v50c0,3.31,2.69,6,6,6s6-2.69,6-6V6c0-3.31-2.69-6-6-6s-6,2.69-6,6Z"/><path class="cls-1" d="M282.82,62c3.31,0,6-2.69,6-6V6c0-3.31-2.69-6-6-6s-6,2.69-6,6v50c0,3.31,2.69,6,6,6Z"/><path class="cls-1" d="M146.82,6v50c0,3.31,2.69,6,6,6s6-2.69,6-6V6c0-3.31-2.69-6-6-6s-6,2.69-6,6Z"/><path class="cls-1" d="M429.65,189.82h-50c-3.31,0-6,2.69-6,6s2.69,6,6,6h50c3.31,0,6-2.69,6-6s-2.69-6-6-6Z"/><path class="cls-1" d="M429.65,233.82h-50c-3.31,0-6,2.69-6,6s2.69,6,6,6h50c3.31,0,6-2.69,6-6s-2.69-6-6-6Z"/><path class="cls-1" d="M429.65,276.82h-50c-3.31,0-6,2.69-6,6s2.69,6,6,6h50c3.31,0,6-2.69,6-6s-2.69-6-6-6Z"/><path class="cls-1" d="M429.65,146.82h-50c-3.31,0-6,2.69-6,6s2.69,6,6,6h50c3.31,0,6-2.69,6-6s-2.69-6-6-6Z"/><path class="cls-1" d="M56,233.82H6c-3.31,0-6,2.69-6,6s2.69,6,6,6h50c3.31,0,6-2.69,6-6s-2.69-6-6-6Z"/><path class="cls-1" d="M56,189.82H6c-3.31,0-6,2.69-6,6s2.69,6,6,6h50c3.31,0,6-2.69,6-6s-2.69-6-6-6Z"/><path class="cls-1" d="M56,146.82H6c-3.31,0-6,2.69-6,6s2.69,6,6,6h50c3.31,0,6-2.69,6-6s-2.69-6-6-6Z"/><path class="cls-1" d="M56,276.82H6c-3.31,0-6,2.69-6,6s2.69,6,6,6h50c3.31,0,6-2.69,6-6s-2.69-6-6-6Z"/></svg>