<?xml version="1.0" encoding="UTF-8"?><svg id="Layer_1" xmlns="http://www.w3.org/2000/svg" viewBox="0 0 72 72.05"><defs><style>.cls-1{fill:#3f5e78;}</style></defs><path class="cls-1" d="M6.26,33.65c15.15,2.72,19.1,6.68,21.83,21.83.25,1.4,2.26,1.4,2.52,0,2.72-15.15,6.68-19.1,21.83-21.83,1.4-.25,1.4-2.26,0-2.52-15.15-2.72-19.1-6.68-21.83-21.83-.25-1.4-2.26-1.4-2.52,0-2.72,15.15-6.68,19.1-21.83,21.83-1.4.25-1.4,2.26,0,2.52h0Z"/><path class="cls-1" d="M40.87,59.56c7.98,1.52,10.26,3.8,11.78,11.78.17.92,1.48.92,1.66,0,1.52-7.98,3.8-10.26,11.78-11.78.92-.17.92-1.48,0-1.66-7.98-1.52-10.26-3.8-11.78-11.78-.17-.92-1.48-.92-1.66,0-1.52,7.98-3.8,10.26-11.78,11.78-.92.17-.92,1.48,0,1.66Z"/><path class="cls-1" d="M47.18,10.72c6.05,1.15,7.77,2.88,8.92,8.92.13.69,1.12.69,1.25,0,1.15-6.05,2.88-7.77,8.92-8.92.69-.13.69-1.12,0-1.25-6.05-1.15-7.77-2.88-8.92-8.92-.13-.69-1.12-.69-1.25,0-1.15,6.05-2.88,7.77-8.92,8.92-.69.13-.69,1.12,0,1.25h0Z"/></svg>