<?xml version="1.0" encoding="UTF-8"?>
<svg id="Layer_1" xmlns="http://www.w3.org/2000/svg" version="1.1" viewBox="0 0 52.9 53">
  <!-- Generator: Adobe Illustrator 29.0.1, SVG Export Plug-In . SVG Version: 2.1.0 Build 192)  -->
  <defs>
    <style>
      .st0 {
        fill: #3f5e78;
      }
    </style>
  </defs>
  <path class="st0" d="M8,25c9.4,1.7,11.8,4.1,13.5,13.5.2.9,1.4.9,1.6,0,1.7-9.4,4.1-11.8,13.5-13.5.9-.2.9-1.4,0-1.6-9.4-1.7-11.8-4.1-13.5-13.5-.2-.9-1.4-.9-1.6,0-1.7,9.4-4.1,11.8-13.5,13.5-.9.2-.9,1.4,0,1.6h0Z"/>
  <path class="st0" d="M29.5,41.1c4.9.9,6.4,2.4,7.3,7.3.1.6.9.6,1,0,.9-4.9,2.4-6.4,7.3-7.3.6-.1.6-.9,0-1-4.9-.9-6.4-2.4-7.3-7.3-.1-.6-.9-.6-1,0-.9,4.9-2.4,6.4-7.3,7.3-.6.1-.6.9,0,1Z"/>
  <path class="st0" d="M33.4,10.8c3.7.7,4.8,1.8,5.5,5.5,0,.4.7.4.8,0,.7-3.7,1.8-4.8,5.5-5.5.4,0,.4-.7,0-.8-3.7-.7-4.8-1.8-5.5-5.5,0-.4-.7-.4-.8,0-.7,3.7-1.8,4.8-5.5,5.5-.4,0-.4.7,0,.8h0Z"/>
</svg>