<?xml version="1.0" encoding="UTF-8"?><svg id="Layer_1" xmlns="http://www.w3.org/2000/svg" viewBox="0 0 1124.93 1314.97"><defs><style>.cls-1{fill:#3f5e78;}</style></defs><path class="cls-1" d="M19.25,614.1c276.67,49.73,348.88,121.93,398.61,398.61,4.61,25.66,41.35,25.66,45.96,0,49.73-276.67,121.93-348.88,398.61-398.61,25.66-4.61,25.66-41.35,0-45.96-276.67-49.73-348.88-121.93-398.61-398.61-4.61-25.66-41.35-25.66-45.96,0-49.73,276.67-121.93,348.88-398.61,398.61-25.66,4.61-25.66,41.35,0,45.96Z"/><path class="cls-1" d="M651.37,1087.31c145.79,27.73,187.38,69.32,215.11,215.11,3.18,16.73,27.04,16.73,30.23,0,27.73-145.79,69.32-187.38,215.11-215.11,16.73-3.18,16.73-27.04,0-30.23-145.79-27.73-187.38-69.32-215.11-215.11-3.18-16.73-27.04-16.73-30.23,0-27.73,145.79-69.32,187.38-215.11,215.11-16.73,3.18-16.73,27.04,0,30.23Z"/><path class="cls-1" d="M766.68,195.32c110.42,21,141.93,52.51,162.93,162.93,2.41,12.67,20.48,12.67,22.89,0,21-110.42,52.51-141.93,162.93-162.93,12.67-2.41,12.67-20.48,0-22.89-110.42-21-141.93-52.51-162.93-162.93-2.41-12.67-20.48-12.67-22.89,0-21,110.42-52.51,141.93-162.93,162.93-12.67,2.41-12.67,20.48,0,22.89Z"/></svg>