<?xml version="1.0" encoding="UTF-8"?><svg id="Networking" xmlns="http://www.w3.org/2000/svg" viewBox="0 0 72 72.25"><defs><style>.cls-1{fill:#3f5e78;}</style></defs><path class="cls-1" d="M37.53,33.42c-2.77,0-5.01,2.25-5.01,5.01.26,6.65,9.76,6.64,10.02,0,0-2.77-2.25-5.01-5.01-5.01h0Z"/><path class="cls-1" d="M60.1,20.87c1.93,0,3.48-1.56,3.48-3.48-.16-4.61-6.81-4.61-6.97,0,0,1.93,1.56,3.48,3.48,3.48h0Z"/><path class="cls-1" d="M14.35,10.5c1.93,0,3.48-1.56,3.48-3.48-.16-4.61-6.81-4.61-6.97,0,0,1.93,1.56,3.48,3.48,3.48h0Z"/><path class="cls-1" d="M10.38,57.39c-3.89.12-3.89,5.77,0,5.88,3.89-.12,3.89-5.77,0-5.88Z"/><path class="cls-1" d="M65.29,50.15c-1.77,0-3.31,1.01-4.07,2.49l-10.08-4.41c2.29-5.43.62-12.32-3.63-16.1l5.3-3.92c3.62,3.77,10.04,4.02,13.97.59,7.37-6.16,2.94-18.31-6.67-18.3-8.58-.07-13.52,10.16-8.12,16.81l-5.42,4.01c-2.34-1.84-5.25-2.98-8.42-3.11v-13.49c4.36-.82,3.87-7.16-.61-7.27-4.48.1-4.97,6.44-.61,7.27v13.49c-3.09.13-5.94,1.22-8.25,2.98l-7.91-12.56C28.47,12.63,24.12.12,14.35.12,8.63.12,3.98,4.78,3.98,10.5c-.05,8.02,8.97,13.09,15.77,8.84l7.97,12.64c-2.17,1.96-3.75,4.57-4.44,7.51l-13.22-3.03c.24-5.06-7.08-5.39-7.3-.33.04,3.94,5.36,5.05,6.99,1.51l13.3,3.05c-.54,3.52.3,7.25,2.24,10.16l-8.66,6.16c-5.45-5.53-15.11-1.6-15.09,6.25-.12,5.08,4.69,9.42,9.72,8.8,6.83-.65,10.34-8.73,6.17-14.12l8.57-6.1c3.37,4.38,9.33,6.57,14.73,5.26l1.78,8.13c-3.29,1.76-2.06,6.88,1.74,6.88,5.23-.26,4.62-7.85-.57-7.27l-1.76-8.06c3.74-1.14,7.03-3.95,8.74-7.44l10.17,4.45c-.61,2.79,1.62,5.55,4.48,5.51,6.06-.24,6.06-8.91,0-9.15h0ZM60.1,11.72c7.77-.06,12.06,9.37,6.89,15.15v-1.12c0-1.87-1.53-3.4-3.4-3.4h-6.97c-1.87,0-3.4,1.53-3.4,3.4v1.12c-5.17-5.79-.88-15.22,6.89-15.15h0ZM5.2,10.5C5.2,5.45,9.3,1.35,14.35,1.35c7.77-.06,12.06,9.37,6.89,15.15v-1.12c0-1.87-1.53-3.4-3.4-3.4h-6.97c-1.87,0-3.4,1.53-3.4,3.4v1.12c-1.45-1.65-2.26-3.77-2.26-6h0ZM16.29,68.08v-.69c0-1.64-1.33-2.96-2.96-2.96h-5.88c-1.64,0-2.96,1.33-2.96,2.96v.69c-4.07-4.87-.45-12.48,5.91-12.43,6.36-.05,9.97,7.56,5.91,12.43h0ZM47.16,52.16v-2.32c0-2.55-2.07-4.62-4.62-4.62h-10.02c-2.54,0-4.62,2.07-4.62,4.62v2.32c-8.22-8.39-2.15-22.79,9.63-22.76,11.77-.03,17.86,14.37,9.63,22.76Z"/></svg>