<?xml version="1.0" encoding="UTF-8"?><svg id="Layer_1" xmlns="http://www.w3.org/2000/svg" viewBox="0 0 60.02 60.01"><defs><style>.cls-1{fill:#3f5e78;}</style></defs><path class="cls-1" d="M50.01,40.01c-2.3,0-4.54.8-6.32,2.26l-3.82-3.81c4.19-4.86,4.19-12.04,0-16.9l3.24-3.24c1.13.88,2.48,1.44,3.9,1.62v2.21c-2.14.55-3.43,2.73-2.87,4.87.55,2.14,2.73,3.43,4.87,2.87,2.14-.55,3.43-2.73,2.87-4.87-.36-1.41-1.46-2.51-2.87-2.87v-2.21c4.38-.55,7.49-4.55,6.95-8.93-.55-4.38-4.55-7.49-8.93-6.95-3.63.45-6.49,3.31-6.95,6.95h-2.21c-.55-2.14-2.73-3.43-4.87-2.87-2.14.55-3.43,2.73-2.87,4.87.55,2.14,2.73,3.43,4.87,2.87,1.41-.36,2.51-1.46,2.87-2.87h2.21c.18,1.42.74,2.77,1.62,3.9l-3.24,3.24c-4.86-4.19-12.04-4.19-16.9,0l-3.81-3.82c3.49-4.28,2.86-10.58-1.42-14.07C12.05-1.24,5.75-.6,2.25,3.67-1.24,7.95-.6,14.25,3.67,17.75c3.68,3.01,8.97,3.01,12.65,0l3.82,3.81c-4.19,4.86-4.19,12.04,0,16.9l-3.24,3.24c-1.13-.88-2.48-1.44-3.9-1.62v-2.21c2.14-.55,3.43-2.73,2.87-4.87-.55-2.14-2.73-3.43-4.87-2.87s-3.43,2.73-2.87,4.87c.36,1.41,1.46,2.51,2.87,2.87v2.21c-4.38.55-7.49,4.55-6.95,8.93.55,4.38,4.55,7.49,8.93,6.95,3.63-.45,6.49-3.31,6.95-6.95h2.21c.55,2.14,2.73,3.43,4.87,2.87,2.14-.55,3.43-2.73,2.87-4.87-.55-2.14-2.73-3.43-4.87-2.87-1.41.36-2.51,1.46-2.87,2.87h-2.21c-.18-1.42-.74-2.77-1.62-3.9l3.24-3.24c4.86,4.19,12.04,4.19,16.9,0l3.81,3.82c-3.49,4.28-2.85,10.58,1.43,14.07,4.28,3.49,10.58,2.85,14.07-1.43,3.49-4.28,2.85-10.58-1.43-14.07-1.79-1.46-4.02-2.25-6.33-2.25ZM15.01,16.25v-1.24c0-1.33-.53-2.6-1.47-3.54-.23-.22-.47-.43-.74-.6,1.58-1.54,1.62-4.07.08-5.66-1.54-1.58-4.07-1.62-5.66-.08s-1.62,4.07-.08,5.66c.03.03.05.05.08.08-1.38.93-2.21,2.48-2.21,4.14v1.24C1.56,13.48,1,8.45,3.76,5,6.52,1.55,11.56.99,15.01,3.76c3.45,2.76,4.01,7.8,1.24,11.24-.37.46-.79.88-1.24,1.24ZM37.01,38.49v-2.48c.02-1.85-.7-3.63-2-4.94-.5-.51-1.08-.94-1.72-1.27,2.11-1.78,2.38-4.94.6-7.05-1.78-2.11-4.94-2.38-7.05-.6s-2.38,4.94-.6,7.05c.18.22.38.41.6.6-2.34,1.19-3.82,3.59-3.83,6.21v2.48c-4.69-3.87-5.35-10.8-1.49-15.49,3.87-4.69,10.8-5.35,15.49-1.49,4.69,3.87,5.35,10.8,1.49,15.49-.45.54-.94,1.04-1.49,1.49ZM55.01,56.25v-1.24c0-1.33-.53-2.6-1.47-3.54-.23-.22-.47-.43-.74-.6,1.58-1.54,1.62-4.07.08-5.66-1.54-1.58-4.07-1.62-5.66-.08s-1.62,4.07-.08,5.66c.03.03.05.05.08.08-1.38.93-2.21,2.48-2.21,4.14v1.24c-3.45-2.76-4.01-7.8-1.24-11.24,2.76-3.45,7.8-4.01,11.24-1.24,3.45,2.76,4.01,7.8,1.24,11.24-.37.46-.79.88-1.24,1.24Z"/></svg>