<?xml version="1.0" encoding="UTF-8"?><svg id="Networking" xmlns="http://www.w3.org/2000/svg" viewBox="0 0 112.98 118.02"><defs><style>.cls-1{fill:#3f5e78;}</style></defs><path class="cls-1" d="M59,54.57c-4.54,0-8.21,3.68-8.21,8.21.43,10.9,16,10.89,16.43,0,0-4.54-3.68-8.21-8.21-8.21h0Z"/><path class="cls-1" d="M96,34c3.16,0,5.71-2.56,5.71-5.71-.26-7.56-11.17-7.56-11.43,0,0,3.16,2.56,5.71,5.71,5.71h0Z"/><path class="cls-1" d="M21,17c3.16,0,5.71-2.56,5.71-5.71-.26-7.56-11.17-7.56-11.43,0,0,3.16,2.56,5.71,5.71,5.71h0Z"/><path class="cls-1" d="M14.5,93.86c-6.37.2-6.37,9.45,0,9.64,6.37-.2,6.37-9.45,0-9.64Z"/><path class="cls-1" d="M104.5,82c-2.9,0-5.42,1.66-6.67,4.08l-16.52-7.23c3.75-8.9,1.02-20.19-5.95-26.39l8.68-6.42c5.93,6.18,16.46,6.59,22.9.96,12.08-10.1,4.82-30.01-10.93-30-14.07-.11-22.16,16.65-13.31,27.55l-8.89,6.58c-3.84-3.02-8.61-4.89-13.8-5.1v-22.12c7.15-1.35,6.34-11.74-1-11.91-7.34.17-8.15,10.56-1,11.91v22.12c-5.07.21-9.74,2-13.53,4.89l-12.97-20.58C44.14,20.5,37.02,0,21,0,11.63,0,4,7.63,4,17c-.09,13.14,14.71,21.46,25.85,14.49l13.06,20.72c-3.56,3.22-6.14,7.49-7.28,12.31l-21.67-4.97c.4-8.29-11.61-8.84-11.97-.54.07,6.46,8.79,8.27,11.46,2.48l21.8,5c-.88,5.77.49,11.88,3.67,16.66l-14.19,10.1C15.8,84.19-.03,90.62,0,103.5c-.19,8.33,7.68,15.44,15.94,14.42,11.2-1.06,16.95-14.31,10.11-23.15l14.05-10c5.53,7.18,15.29,10.77,24.14,8.63l2.92,13.32c-5.4,2.89-3.37,11.27,2.85,11.28,8.57-.43,7.58-12.86-.94-11.92l-2.89-13.21c6.13-1.87,11.52-6.47,14.32-12.2l16.67,7.29c-1,4.57,2.65,9.09,7.34,9.03,9.94-.39,9.94-14.61,0-15h0ZM96,19c12.74-.1,19.76,15.36,11.29,24.84v-1.84c0-3.07-2.5-5.57-5.57-5.57h-11.43c-3.07,0-5.57,2.5-5.57,5.57v1.84c-8.48-9.49-1.45-24.94,11.29-24.84h0ZM6,17C6,8.73,12.73,2,21,2c12.74-.1,19.76,15.36,11.29,24.84v-1.84c0-3.07-2.5-5.57-5.57-5.57h-11.43c-3.07,0-5.57,2.5-5.57,5.57v1.84c-2.37-2.71-3.71-6.18-3.71-9.84h0ZM24.18,111.38v-1.13c0-2.68-2.18-4.86-4.86-4.86h-9.64c-2.68,0-4.86,2.18-4.86,4.86v1.13c-6.67-7.98-.74-20.46,9.68-20.38,10.42-.08,16.35,12.4,9.68,20.38h0ZM74.79,85.3v-3.8c0-4.18-3.4-7.57-7.57-7.57h-16.43c-4.17,0-7.57,3.4-7.57,7.57v3.8c-13.48-13.76-3.52-37.35,15.79-37.3,19.3-.05,29.27,23.55,15.78,37.3Z"/></svg>