<?xml version="1.0" encoding="UTF-8"?><svg id="Layer_1" xmlns="http://www.w3.org/2000/svg" viewBox="0 0 499.5 449.25"><defs><style>.cls-1{fill:#3f5e78;}</style></defs><g id="_10"><path class="cls-1" d="M232.72,34.03H41.06c-5.52,0-10-4.48-10-10s4.48-10,10-10h191.66c5.52,0,10,4.48,10,10s-4.48,10-10,10Z"/><path class="cls-1" d="M458.43,34.03h-191.65c-5.52,0-10-4.48-10-10s4.48-10,10-10h191.65c5.52,0,10,4.48,10,10s-4.48,10-10,10Z"/><path class="cls-1" d="M339.69,282.72l-65.37-186.51h-14.57v140.27c12.72,4.2,21.92,16.19,21.92,30.3,0,17.6-14.32,31.92-31.92,31.92s-31.92-14.32-31.92-31.92c0-14.11,9.2-26.1,21.92-30.3V96.21h-14.57l-65.37,186.51c-3.27,9.32-3.47,19.44-.57,28.88l20.93,68.16h139.16l20.93-68.16c2.9-9.44,2.7-19.56-.57-28.88Z"/><path class="cls-1" d="M178.98,399.76v.02c.91,2.94,3.62,4.94,6.7,4.94h128.14c3.07,0,5.79-2,6.69-4.94v-.02s-141.53,0-141.53,0ZM225.18,89.21c-2.97,0-5.62,1.87-6.6,4.68l-65.38,186.52c-3.79,10.8-4.01,22.3-.65,33.25l20.45,66.61c1.87-.34,3.79-.51,5.75-.51h8.74l-21.56-70.21c-2.48-8.07-2.31-16.55.48-24.51l63.74-181.83h9.6v-14h-14.57ZM346.3,280.41l-65.38-186.52c-.98-2.81-3.63-4.68-6.6-4.68h-14.57v14h9.6l63.74,181.83c2.79,7.96,2.95,16.44.48,24.51l-21.56,70.21h8.73c1.96,0,3.89.18,5.76.52l20.45-66.62c3.36-10.95,3.14-22.45-.65-33.25Z"/><path class="cls-1" d="M333.14,412.16v24.7c0,6.84-5.55,12.39-12.4,12.39h-141.99c-6.84,0-12.39-5.55-12.39-12.39v-24.7c0-6.85,5.55-12.4,12.39-12.4h141.99c6.85,0,12.4,5.55,12.4,12.4Z"/><path class="cls-1" d="M24.68,242.72c-.25,0-.5,0-.75-.03-5.51-.41-9.64-5.21-9.23-10.72,4.18-56.11,28.47-108.99,68.38-148.9C122.98,43.16,175.87,18.88,231.98,14.7c5.5-.4,10.31,3.72,10.72,9.23.41,5.51-3.72,10.3-9.23,10.72C127.98,42.51,42.51,127.98,34.64,233.46c-.39,5.25-4.78,9.26-9.96,9.26Z"/><path class="cls-1" d="M474.82,242.72c-5.19,0-9.57-4-9.96-9.26-7.86-105.48-93.34-190.96-198.82-198.82-5.51-.41-9.64-5.21-9.23-10.72.41-5.51,5.21-9.63,10.72-9.23,56.11,4.18,108.99,28.47,148.9,68.38,39.91,39.91,64.19,92.79,68.38,148.9.41,5.51-3.72,10.3-9.23,10.72-.25.02-.5.03-.75.03Z"/><rect class="cls-1" x="232.72" y="7" width="34.07" height="34.07"/><path class="cls-1" d="M266.78,0h-34.06c-3.87,0-7,3.13-7,7v34.06c0,3.87,3.13,7,7,7h34.06c3.87,0,7-3.13,7-7V7c0-3.87-3.13-7-7-7ZM259.78,34.06h-20.06V14h20.06v20.06Z"/><rect class="cls-1" x="7" y="232.72" width="34.07" height="34.07"/><path class="cls-1" d="M41.06,225.72H7c-3.87,0-7,3.13-7,7v34.06c0,3.87,3.13,7,7,7h34.06c3.87,0,7-3.13,7-7v-34.06c0-3.87-3.13-7-7-7ZM14,239.72h20.06v20.06H14v-20.06Z"/><rect class="cls-1" x="458.43" y="232.72" width="34.07" height="34.07"/><path class="cls-1" d="M492.5,225.72h-34.07c-3.86,0-7,3.13-7,7v34.06c0,3.87,3.14,7,7,7h34.07c3.87,0,7-3.13,7-7v-34.06c0-3.87-3.13-7-7-7ZM485.5,259.78h-20.07v-20.06h20.07v20.06Z"/><rect class="cls-1" x="7" y="7" width="34.07" height="34.07"/><path class="cls-1" d="M41.06,0H7C3.13,0,0,3.13,0,7v34.06c0,3.87,3.13,7,7,7h34.06c3.87,0,7-3.13,7-7V7c0-3.87-3.13-7-7-7ZM34.06,34.06H14V14h20.06v20.06Z"/><rect class="cls-1" x="458.43" y="7" width="34.07" height="34.07"/><path class="cls-1" d="M492.5,0h-34.07c-3.86,0-7,3.13-7,7v34.06c0,3.87,3.14,7,7,7h34.07c3.87,0,7-3.13,7-7V7c0-3.87-3.13-7-7-7ZM485.5,34.06h-20.07V14h20.07v20.06Z"/></g></svg>