<?xml version="1.0" encoding="UTF-8"?>
<svg id="Layer_1" xmlns="http://www.w3.org/2000/svg" version="1.1" viewBox="0 0 51.8 51.8">
  <!-- Generator: Adobe Illustrator 29.0.1, SVG Export Plug-In . SVG Version: 2.1.0 Build 192)  -->
  <defs>
    <style>
      .st0 {
        fill: #3f5e78;
      }
    </style>
  </defs>
  <g id="_10">
    <path class="st0" d="M24.2,7H5.2c-.5,0-1-.4-1-1s.4-1,1-1h19c.5,0,1,.4,1,1s-.4,1-1,1Z"/>
    <path class="st0" d="M46.7,7h-19c-.5,0-1-.4-1-1s.4-1,1-1h19c.5,0,1,.4,1,1s-.4,1-1,1Z"/>
    <path class="st0" d="M34.9,31.7l-6.5-18.5h-1.4v13.9c1.3.4,2.2,1.6,2.2,3s-1.4,3.2-3.2,3.2-3.2-1.4-3.2-3.2.9-2.6,2.2-3v-13.9h-1.4l-6.5,18.5c-.3.9-.3,1.9,0,2.9l2.1,6.8h13.8l2.1-6.8c.3-.9.3-1.9,0-2.9Z"/>
    <path class="st0" d="M18.9,43.3h0c0,.3.4.5.7.5h12.7c.3,0,.6-.2.7-.5h0s-14.1,0-14.1,0h0ZM23.5,12.5c-.3,0-.6.2-.7.5l-6.5,18.5c-.4,1.1-.4,2.2,0,3.3l2,6.6c.2,0,.4,0,.6,0h.9l-2.1-7c-.2-.8-.2-1.6,0-2.4l6.3-18.1h1v-1.4s-1.4,0-1.4,0ZM35.5,31.5l-6.5-18.5c0-.3-.4-.5-.7-.5h-1.4v1.4h1l6.3,18.1c.3.8.3,1.6,0,2.4l-2.1,7h.9c.2,0,.4,0,.6,0l2-6.6c.3-1.1.3-2.2,0-3.3h0Z"/>
    <path class="st0" d="M34.2,44.6v2.5c0,.7-.6,1.2-1.2,1.2h-14.1c-.7,0-1.2-.6-1.2-1.2v-2.5c0-.7.6-1.2,1.2-1.2h14.1c.7,0,1.2.6,1.2,1.2Z"/>
    <path class="st0" d="M3.6,27.7s0,0,0,0c-.5,0-1-.5-.9-1.1.4-5.6,2.8-10.8,6.8-14.8,4-4,9.2-6.4,14.8-6.8.5,0,1,.4,1.1.9s-.4,1-.9,1.1c-10.5.8-19,9.3-19.8,19.8,0,.5-.5.9-1,.9Z"/>
    <path class="st0" d="M48.3,27.7c-.5,0-1-.4-1-.9-.8-10.5-9.3-19-19.8-19.8-.5,0-1-.5-.9-1.1,0-.5.5-1,1.1-.9,5.6.4,10.8,2.8,14.8,6.8,4,4,6.4,9.2,6.8,14.8,0,.5-.4,1-.9,1.1,0,0,0,0,0,0h0Z"/>
    <rect class="st0" x="24.2" y="4.3" width="3.4" height="3.4"/>
    <path class="st0" d="M27.6,3.6h-3.4c-.4,0-.7.3-.7.7v3.4c0,.4.3.7.7.7h3.4c.4,0,.7-.3.7-.7v-3.4c0-.4-.3-.7-.7-.7ZM26.9,7h-2v-2h2v2Z"/>
    <rect class="st0" x="1.8" y="26.7" width="3.4" height="3.4"/>
    <path class="st0" d="M5.2,26H1.8c-.4,0-.7.3-.7.7v3.4c0,.4.3.7.7.7h3.4c.4,0,.7-.3.7-.7v-3.4c0-.4-.3-.7-.7-.7ZM2.5,27.4h2v2h-2v-2Z"/>
    <rect class="st0" x="46.7" y="26.7" width="3.4" height="3.4"/>
    <path class="st0" d="M50,26h-3.4c-.4,0-.7.3-.7.7v3.4c0,.4.3.7.7.7h3.4c.4,0,.7-.3.7-.7v-3.4c0-.4-.3-.7-.7-.7ZM49.3,29.4h-2v-2h2v2Z"/>
    <rect class="st0" x="1.8" y="4.3" width="3.4" height="3.4"/>
    <path class="st0" d="M5.2,3.6H1.8c-.4,0-.7.3-.7.7v3.4c0,.4.3.7.7.7h3.4c.4,0,.7-.3.7-.7v-3.4c0-.4-.3-.7-.7-.7ZM4.5,7h-2v-2h2s0,2,0,2Z"/>
    <rect class="st0" x="46.7" y="4.3" width="3.4" height="3.4"/>
    <path class="st0" d="M50,3.6h-3.4c-.4,0-.7.3-.7.7v3.4c0,.4.3.7.7.7h3.4c.4,0,.7-.3.7-.7v-3.4c0-.4-.3-.7-.7-.7ZM49.3,7h-2v-2h2v2Z"/>
  </g>
</svg>