<?xml version="1.0" encoding="UTF-8"?>
<svg id="Layer_1" xmlns="http://www.w3.org/2000/svg" version="1.1" viewBox="0 0 499.5 449.2">
  <!-- Generator: Adobe Illustrator 29.0.1, SVG Export Plug-In . SVG Version: 2.1.0 Build 192)  -->
  <defs>
    <style>
      .st0 {
        fill: #3f5e78;
      }
    </style>
  </defs>
  <g id="_10">
    <path class="st0" d="M23.1,3.4H4.1c-.5,0-1-.4-1-1s.4-1,1-1h19c.5,0,1,.4,1,1s-.4,1-1,1Z"/>
    <path class="st0" d="M45.6,3.4h-19c-.5,0-1-.4-1-1s.4-1,1-1h19c.5,0,1,.4,1,1s-.4,1-1,1Z"/>
    <path class="st0" d="M33.8,28.1l-6.5-18.5h-1.4v13.9c1.3.4,2.2,1.6,2.2,3s-1.4,3.2-3.2,3.2-3.2-1.4-3.2-3.2.9-2.6,2.2-3v-13.9h-1.4l-6.5,18.5c-.3.9-.3,1.9,0,2.9l2.1,6.8h13.8l2.1-6.8c.3-.9.3-1.9,0-2.9Z"/>
    <path class="st0" d="M17.8,39.7h0c0,.3.4.5.7.5h12.7c.3,0,.6-.2.7-.5h0s-14.1,0-14.1,0h0ZM22.4,8.9c-.3,0-.6.2-.7.5l-6.5,18.5c-.4,1.1-.4,2.2,0,3.3l2,6.6c.2,0,.4,0,.6,0h.9l-2.1-7c-.2-.8-.2-1.6,0-2.4l6.3-18.1h1v-1.4s-1.4,0-1.4,0ZM34.4,27.9l-6.5-18.5c0-.3-.4-.5-.7-.5h-1.4v1.4h1l6.3,18.1c.3.8.3,1.6,0,2.4l-2.1,7h.9c.2,0,.4,0,.6,0l2-6.6c.3-1.1.3-2.2,0-3.3h0Z"/>
    <path class="st0" d="M33.1,41v2.5c0,.7-.6,1.2-1.2,1.2h-14.1c-.7,0-1.2-.6-1.2-1.2v-2.5c0-.7.6-1.2,1.2-1.2h14.1c.7,0,1.2.6,1.2,1.2Z"/>
    <path class="st0" d="M2.5,24.1s0,0,0,0c-.5,0-1-.5-.9-1.1.4-5.6,2.8-10.8,6.8-14.8,4-4,9.2-6.4,14.8-6.8.5,0,1,.4,1.1.9s-.4,1-.9,1.1C12.7,4.2,4.2,12.7,3.4,23.2c0,.5-.5.9-1,.9Z"/>
    <path class="st0" d="M47.2,24.1c-.5,0-1-.4-1-.9-.8-10.5-9.3-19-19.8-19.8-.5,0-1-.5-.9-1.1,0-.5.5-1,1.1-.9,5.6.4,10.8,2.8,14.8,6.8,4,4,6.4,9.2,6.8,14.8,0,.5-.4,1-.9,1.1,0,0,0,0,0,0h0Z"/>
    <rect class="st0" x="23.1" y=".7" width="3.4" height="3.4"/>
    <path class="st0" d="M26.5,0h-3.4c-.4,0-.7.3-.7.7v3.4c0,.4.3.7.7.7h3.4c.4,0,.7-.3.7-.7V.7c0-.4-.3-.7-.7-.7ZM25.8,3.4h-2v-2h2v2Z"/>
    <rect class="st0" x=".7" y="23.1" width="3.4" height="3.4"/>
    <path class="st0" d="M4.1,22.4H.7c-.4,0-.7.3-.7.7v3.4c0,.4.3.7.7.7h3.4c.4,0,.7-.3.7-.7v-3.4c0-.4-.3-.7-.7-.7ZM1.4,23.8h2v2h-2v-2Z"/>
    <rect class="st0" x="45.6" y="23.1" width="3.4" height="3.4"/>
    <path class="st0" d="M48.9,22.4h-3.4c-.4,0-.7.3-.7.7v3.4c0,.4.3.7.7.7h3.4c.4,0,.7-.3.7-.7v-3.4c0-.4-.3-.7-.7-.7ZM48.2,25.8h-2v-2h2v2Z"/>
    <rect class="st0" x=".7" y=".7" width="3.4" height="3.4"/>
    <path class="st0" d="M4.1,0H.7c-.4,0-.7.3-.7.7v3.4c0,.4.3.7.7.7h3.4c.4,0,.7-.3.7-.7V.7c0-.4-.3-.7-.7-.7ZM3.4,3.4h-2v-2h2s0,2,0,2Z"/>
    <rect class="st0" x="45.6" y=".7" width="3.4" height="3.4"/>
    <path class="st0" d="M48.9,0h-3.4c-.4,0-.7.3-.7.7v3.4c0,.4.3.7.7.7h3.4c.4,0,.7-.3.7-.7V.7c0-.4-.3-.7-.7-.7ZM48.2,3.4h-2v-2h2v2Z"/>
  </g>
</svg>