<?xml version="1.0" encoding="UTF-8"?><svg id="Layer_1" xmlns="http://www.w3.org/2000/svg" viewBox="0 0 72 72"><defs><style>.cls-1{fill:#3f5e78;}</style></defs><g id="_10"><path class="cls-1" d="M33.55,8.53H5.92c-.8,0-1.44-.65-1.44-1.44s.65-1.44,1.44-1.44h27.63c.8,0,1.44.65,1.44,1.44s-.65,1.44-1.44,1.44Z"/><path class="cls-1" d="M66.08,8.53h-27.63c-.8,0-1.44-.65-1.44-1.44s.65-1.44,1.44-1.44h27.63c.8,0,1.44.65,1.44,1.44s-.65,1.44-1.44,1.44Z"/><path class="cls-1" d="M48.96,44.37l-9.42-26.88h-2.1v20.22c1.83.61,3.16,2.33,3.16,4.37,0,2.54-2.06,4.6-4.6,4.6s-4.6-2.06-4.6-4.6c0-2.03,1.33-3.76,3.16-4.37v-20.22h-2.1l-9.42,26.88c-.47,1.34-.5,2.8-.08,4.16l3.02,9.82h20.06l3.02-9.82c.42-1.36.39-2.82-.08-4.16Z"/><path class="cls-1" d="M25.8,61.24h0c.13.43.52.71.97.71h18.47c.44,0,.83-.29.96-.71h0s-20.4,0-20.4,0h0ZM32.46,16.48c-.43,0-.81.27-.95.67l-9.42,26.89c-.55,1.56-.58,3.21-.09,4.79l2.95,9.6c.27-.05.55-.07.83-.07h1.26l-3.11-10.12c-.36-1.16-.33-2.39.07-3.53l9.19-26.21h1.38v-2.02s-2.1,0-2.1,0ZM49.92,44.04l-9.42-26.89c-.14-.41-.52-.67-.95-.67h-2.1v2.02h1.38l9.19,26.21c.4,1.15.43,2.37.07,3.53l-3.11,10.12h1.26c.28,0,.56.03.83.07l2.95-9.6c.48-1.58.45-3.24-.09-4.79h0Z"/><path class="cls-1" d="M48.02,63.03v3.56c0,.99-.8,1.79-1.79,1.79h-20.47c-.99,0-1.79-.8-1.79-1.79v-3.56c0-.99.8-1.79,1.79-1.79h20.47c.99,0,1.79.8,1.79,1.79Z"/><path class="cls-1" d="M3.56,38.61s-.07,0-.11,0c-.79-.06-1.39-.75-1.33-1.55.6-8.09,4.1-15.71,9.86-21.46,5.75-5.75,13.38-9.25,21.46-9.86.79-.06,1.49.54,1.55,1.33s-.54,1.48-1.33,1.55c-15.21,1.13-27.53,13.45-28.66,28.66-.06.76-.69,1.33-1.44,1.33Z"/><path class="cls-1" d="M68.44,38.61c-.75,0-1.38-.58-1.44-1.33-1.13-15.2-13.45-27.53-28.66-28.66-.79-.06-1.39-.75-1.33-1.55.06-.79.75-1.39,1.55-1.33,8.09.6,15.71,4.1,21.46,9.86,5.75,5.75,9.25,13.38,9.86,21.46.06.79-.54,1.48-1.33,1.55-.04,0-.07,0-.11,0h0Z"/><rect class="cls-1" x="33.55" y="4.63" width="4.91" height="4.91"/><path class="cls-1" d="M38.45,3.62h-4.91c-.56,0-1.01.45-1.01,1.01v4.91c0,.56.45,1.01,1.01,1.01h4.91c.56,0,1.01-.45,1.01-1.01v-4.91c0-.56-.45-1.01-1.01-1.01ZM37.45,8.53h-2.89v-2.89h2.89v2.89Z"/><rect class="cls-1" x="1.01" y="37.17" width="4.91" height="4.91"/><path class="cls-1" d="M5.92,36.16H1.01c-.56,0-1.01.45-1.01,1.01v4.91c0,.56.45,1.01,1.01,1.01h4.91c.56,0,1.01-.45,1.01-1.01v-4.91c0-.56-.45-1.01-1.01-1.01ZM2.02,38.18h2.89v2.89h-2.89v-2.89Z"/><rect class="cls-1" x="66.08" y="37.17" width="4.91" height="4.91"/><path class="cls-1" d="M70.99,36.16h-4.91c-.56,0-1.01.45-1.01,1.01v4.91c0,.56.45,1.01,1.01,1.01h4.91c.56,0,1.01-.45,1.01-1.01v-4.91c0-.56-.45-1.01-1.01-1.01ZM69.98,41.07h-2.89v-2.89h2.89v2.89Z"/><rect class="cls-1" x="1.01" y="4.63" width="4.91" height="4.91"/><path class="cls-1" d="M5.92,3.62H1.01c-.56,0-1.01.45-1.01,1.01v4.91c0,.56.45,1.01,1.01,1.01h4.91c.56,0,1.01-.45,1.01-1.01v-4.91c0-.56-.45-1.01-1.01-1.01ZM4.91,8.53h-2.89v-2.89h2.89s0,2.89,0,2.89Z"/><rect class="cls-1" x="66.08" y="4.63" width="4.91" height="4.91"/><path class="cls-1" d="M70.99,3.62h-4.91c-.56,0-1.01.45-1.01,1.01v4.91c0,.56.45,1.01,1.01,1.01h4.91c.56,0,1.01-.45,1.01-1.01v-4.91c0-.56-.45-1.01-1.01-1.01ZM69.98,8.53h-2.89v-2.89h2.89v2.89Z"/></g></svg>